{
	"asset":{
		"generator":"Khronos glTF Blender I/O v3.5.30",
		"version":"2.0"
	},
	"scene":0,
	"scenes":[
		{
			"name":"Scene",
			"nodes":[
				0,
				1,
				2
			]
		}
	],
	"nodes":[
		{
			"mesh":0,
			"name":"Donut"
		},
		{
			"mesh":1,
			"name":"Icing"
		},
		{
			"mesh":2,
			"name":"Plane",
			"scale":[
				0.26050257682800293,
				0.26050257682800293,
				0.26050257682800293
			],
			"translation":[
				-0.0011972027132287621,
				-0.020630845800042152,
				0.010419003665447235
			]
		}
	],
	"materials":[
		{
			"doubleSided":true,
			"name":"Material.002",
			"pbrMetallicRoughness":{
				"baseColorFactor":[
					0.8000000715255737,
					0.43444085121154785,
					0.07538094371557236,
					1
				],
				"metallicFactor":0,
				"roughnessFactor":0.5
			}
		},
		{
			"doubleSided":true,
			"name":"Material.001",
			"pbrMetallicRoughness":{
				"baseColorFactor":[
					1,
					0.34360483288764954,
					0.8716711401939392,
					1
				],
				"metallicFactor":0,
				"roughnessFactor":0.24352331459522247
			}
		},
		{
			"doubleSided":true,
			"name":"Material.003",
			"pbrMetallicRoughness":{
				"baseColorFactor":[
					0.10700482130050659,
					0.09697432070970535,
					0.8000000715255737,
					1
				],
				"metallicFactor":0,
				"roughnessFactor":0.5
			}
		}
	],
	"meshes":[
		{
			"name":"Torus",
			"primitives":[
				{
					"attributes":{
						"POSITION":0,
						"TEXCOORD_0":1,
						"NORMAL":2
					},
					"indices":3,
					"material":0
				}
			]
		},
		{
			"name":"Torus.001",
			"primitives":[
				{
					"attributes":{
						"POSITION":4,
						"TEXCOORD_0":5,
						"NORMAL":6
					},
					"indices":7,
					"material":1
				}
			]
		},
		{
			"name":"Plane",
			"primitives":[
				{
					"attributes":{
						"POSITION":8,
						"TEXCOORD_0":9,
						"NORMAL":10
					},
					"indices":11,
					"material":2
				}
			]
		}
	],
	"accessors":[
		{
			"bufferView":0,
			"componentType":5126,
			"count":2673,
			"max":[
				0.047582585364580154,
				0.02147788740694523,
				0.04869631677865982
			],
			"min":[
				-0.04757406562566757,
				-0.021052848547697067,
				-0.0479961521923542
			],
			"type":"VEC3"
		},
		{
			"bufferView":1,
			"componentType":5126,
			"count":2673,
			"type":"VEC2"
		},
		{
			"bufferView":2,
			"componentType":5126,
			"count":2673,
			"type":"VEC3"
		},
		{
			"bufferView":3,
			"componentType":5123,
			"count":15360,
			"type":"SCALAR"
		},
		{
			"bufferView":4,
			"componentType":5126,
			"count":11012,
			"max":[
				0.04929732903838158,
				0.023646116256713867,
				0.05009373277425766
			],
			"min":[
				-0.04945022985339165,
				-0.014258408918976784,
				-0.049265697598457336
			],
			"type":"VEC3"
		},
		{
			"bufferView":5,
			"componentType":5126,
			"count":11012,
			"type":"VEC2"
		},
		{
			"bufferView":6,
			"componentType":5126,
			"count":11012,
			"type":"VEC3"
		},
		{
			"bufferView":7,
			"componentType":5123,
			"count":65712,
			"type":"SCALAR"
		},
		{
			"bufferView":8,
			"componentType":5126,
			"count":4,
			"max":[
				1,
				0,
				1
			],
			"min":[
				-1,
				0,
				-1
			],
			"type":"VEC3"
		},
		{
			"bufferView":9,
			"componentType":5126,
			"count":4,
			"type":"VEC2"
		},
		{
			"bufferView":10,
			"componentType":5126,
			"count":4,
			"type":"VEC3"
		},
		{
			"bufferView":11,
			"componentType":5123,
			"count":6,
			"type":"SCALAR"
		}
	],
	"bufferViews":[
		{
			"buffer":0,
			"byteLength":32076,
			"byteOffset":0,
			"target":34962
		},
		{
			"buffer":0,
			"byteLength":21384,
			"byteOffset":32076,
			"target":34962
		},
		{
			"buffer":0,
			"byteLength":32076,
			"byteOffset":53460,
			"target":34962
		},
		{
			"buffer":0,
			"byteLength":30720,
			"byteOffset":85536,
			"target":34963
		},
		{
			"buffer":0,
			"byteLength":132144,
			"byteOffset":116256,
			"target":34962
		},
		{
			"buffer":0,
			"byteLength":88096,
			"byteOffset":248400,
			"target":34962
		},
		{
			"buffer":0,
			"byteLength":132144,
			"byteOffset":336496,
			"target":34962
		},
		{
			"buffer":0,
			"byteLength":131424,
			"byteOffset":468640,
			"target":34963
		},
		{
			"buffer":0,
			"byteLength":48,
			"byteOffset":600064,
			"target":34962
		},
		{
			"buffer":0,
			"byteLength":32,
			"byteOffset":600112,
			"target":34962
		},
		{
			"buffer":0,
			"byteLength":48,
			"byteOffset":600144,
			"target":34962
		},
		{
			"buffer":0,
			"byteLength":12,
			"byteOffset":600192,
			"target":34963
		}
	],
	"buffers":[
		{
			"byteLength":600204,
			"uri":"donut.bin"
		}
	]
}
